<?xml version="1.0" standalone="no"?>
<!DOCTYPE svg PUBLIC "-//W3C//DTD SVG 20010904//EN"
 "http://www.w3.org/TR/2001/REC-SVG-20010904/DTD/svg10.dtd">
<svg version="1.0" xmlns="http://www.w3.org/2000/svg"
 width="500.000000pt" height="500.000000pt" viewBox="0 0 500.000000 500.000000"
 preserveAspectRatio="xMidYMid meet">

<g transform="translate(0.000000,500.000000) scale(0.100000,-0.100000)"
fill="#000000" stroke="none">
<path d="M2336 3649 c-273 -40 -518 -186 -681 -404 -114 -153 -195 -376 -195
-536 l0 -49 1021 0 1021 0 -7 68 c-23 222 -127 450 -280 620 -58 63 -192 160
-290 210 -170 85 -393 120 -589 91z m279 -40 c83 -11 186 -42 279 -84 74 -33
63 -44 -44 -46 -108 -1 -50 -17 68 -18 79 -1 99 -4 125 -23 63 -43 190 -174
237 -243 51 -76 84 -135 78 -141 -2 -2 -40 -7 -83 -11 l-80 -9 90 -7 c52 -4
92 -13 97 -20 14 -21 50 -138 45 -143 -3 -3 -74 -8 -159 -12 -181 -7 -163 -20
30 -21 152 -1 143 4 156 -103 l6 -58 -95 0 c-52 0 -139 6 -193 14 -144 22
-267 31 -443 35 l-76 1 -12 38 c-14 41 -15 36 34 197 l15 50 -5 -53 c-4 -54
-4 -54 18 -39 33 21 64 71 71 116 3 22 18 53 32 70 22 27 31 31 58 26 20 -4
48 0 74 10 23 10 48 15 56 12 8 -3 21 2 30 12 15 17 13 23 -30 87 -25 38 -55
79 -67 92 -19 20 -23 21 -42 8 -16 -10 -47 -14 -101 -13 -59 2 -87 -2 -109
-15 -76 -43 -327 -61 -524 -37 -53 6 -107 11 -119 11 -28 1 -57 -27 -67 -62
-4 -15 -3 -20 2 -13 6 8 7 -24 5 -76 -3 -69 0 -100 13 -135 11 -28 14 -52 9
-63 -6 -15 -22 -147 -25 -214 0 -12 -33 -18 -182 -34 -100 -10 -206 -20 -235
-23 l-53 -4 3 54 3 53 64 7 c86 10 89 18 7 18 l-68 0 7 36 c3 20 15 64 26 99
22 72 27 74 158 76 97 1 58 17 -46 18 -40 1 -73 4 -73 7 0 3 25 49 56 101 34
57 85 125 128 169 l71 74 159 10 c88 5 162 12 164 15 3 3 -39 6 -94 6 -54 1
-106 3 -114 4 -8 1 -26 3 -40 4 -22 1 -18 6 30 37 200 131 443 186 675 153z
m-17 -740 c6 -40 11 -90 11 -110 -1 -35 -3 -37 -32 -35 -18 0 -37 8 -44 16
-11 13 -12 13 -13 0 0 -17 -37 -24 -55 -11 -5 4 -19 11 -29 15 -16 5 -17 4 -6
-9 11 -13 -1 -15 -106 -15 l-119 0 -22 33 c-24 35 -27 66 -16 155 5 43 9 52
22 46 9 -3 37 -14 63 -23 26 -10 57 -26 69 -37 15 -13 23 -15 26 -7 2 6 36 24
75 39 61 23 77 26 109 17 l38 -10 -15 28 c-24 47 -16 68 9 23 13 -22 29 -74
35 -115z m-478 106 c-29 -31 -29 -83 0 -140 11 -21 20 -48 20 -58 0 -10 4 -26
10 -36 8 -16 2 -19 -61 -25 -39 -3 -75 -4 -80 -1 -20 13 -6 68 42 164 43 86
68 119 88 121 3 0 -6 -11 -19 -25z"/>
<path d="M1952 3170 c0 -14 2 -19 5 -12 2 6 2 18 0 25 -3 6 -5 1 -5 -13z"/>
<path d="M1937 3070 c-4 -41 -9 -103 -13 -137 -3 -35 -1 -69 4 -79 20 -36 32
53 24 176 l-8 115 -7 -75z"/>
<path d="M2798 2123 c7 -3 16 -2 19 1 4 3 -2 6 -13 5 -11 0 -14 -3 -6 -6z"/>
<path d="M1915 2090 c-77 -17 -166 -38 -198 -48 l-59 -19 73 -79 c158 -171
321 -263 548 -309 118 -24 343 -17 456 14 194 54 352 147 479 282 42 44 76 84
76 88 0 14 -381 102 -435 101 -11 -1 23 -12 75 -26 100 -25 202 -57 259 -81
l34 -14 -44 -45 c-88 -91 -241 -190 -359 -233 -132 -48 -178 -55 -355 -55
-156 0 -177 3 -260 28 -160 48 -293 127 -419 248 -26 25 -45 51 -42 56 7 12
149 60 281 96 124 34 61 31 -110 -4z"/>
</g>
</svg>
