<?xml version="1.0" standalone="no"?>
<!DOCTYPE svg PUBLIC "-//W3C//DTD SVG 20010904//EN"
 "http://www.w3.org/TR/2001/REC-SVG-20010904/DTD/svg10.dtd">
<svg version="1.0" xmlns="http://www.w3.org/2000/svg"
 width="500.000000pt" height="500.000000pt" viewBox="0 0 500.000000 500.000000"
 preserveAspectRatio="xMidYMid meet">

<g transform="translate(0.000000,500.000000) scale(0.100000,-0.100000)"
fill="#000000" stroke="none">
<path d="M2370 3653 c-434 -68 -747 -348 -858 -768 -11 -44 -24 -113 -28 -152
l-7 -73 1022 0 1021 0 0 33 c0 58 -20 160 -50 257 -114 368 -434 642 -817 699
-68 10 -229 13 -283 4z m240 -43 c47 -6 119 -20 160 -31 83 -22 210 -77 210
-90 0 -5 -42 -10 -92 -10 -121 -2 -71 -16 61 -18 l94 -1 54 -41 c101 -79 215
-215 271 -326 l22 -41 -68 -7 c-80 -8 -100 -13 -52 -14 19 -1 58 -4 87 -7 l51
-7 21 -63 c12 -36 21 -70 21 -78 0 -15 -75 -25 -199 -27 -117 -2 -39 -16 96
-18 61 0 114 -5 117 -10 3 -5 9 -41 12 -80 l7 -71 -89 0 c-49 0 -136 7 -194
15 -58 8 -197 20 -310 26 -126 7 -208 16 -213 23 -19 28 -18 65 2 155 12 53
26 100 32 105 11 12 11 -6 0 -56 -5 -21 -6 -38 -2 -38 21 0 73 72 85 118 8 28
24 65 36 82 19 27 26 30 56 24 22 -4 50 -1 77 9 23 9 50 15 61 14 10 -1 23 5
28 13 8 12 -1 33 -36 85 -25 39 -54 81 -65 95 l-20 25 -28 -21 c-24 -17 -35
-19 -76 -12 -48 9 -69 5 -152 -25 -22 -8 -94 -22 -160 -30 -119 -15 -142 -14
-407 8 l-86 8 -14 -29 c-19 -37 -18 -219 0 -252 10 -17 10 -46 1 -135 -6 -61
-11 -124 -12 -138 l0 -25 -181 -18 c-318 -32 -296 -32 -296 -3 0 13 3 39 6 56
6 28 10 31 48 32 22 1 52 5 66 9 19 6 9 8 -37 9 -75 1 -76 4 -41 119 25 86 33
91 141 93 65 1 68 2 32 10 -22 4 -62 8 -88 8 l-49 1 37 68 c42 77 126 190 182
244 l38 37 159 10 c87 5 161 12 164 15 3 4 -44 7 -104 7 -60 1 -122 4 -137 8
-28 6 -26 8 50 53 126 76 262 122 408 138 104 11 123 11 215 0z m-15 -640 c12
-14 27 -96 39 -208 l4 -43 -36 7 c-21 4 -43 11 -50 17 -9 7 -11 6 -7 -5 7 -18
-38 -18 -72 0 -30 16 -38 15 -23 -3 12 -14 0 -15 -105 -13 -116 3 -118 3 -139
31 -18 25 -21 40 -18 109 1 45 5 84 7 88 6 10 133 -36 152 -56 9 -9 18 -11 22
-6 9 14 133 62 160 62 12 0 31 -5 42 -10 23 -13 23 -12 4 33 -8 19 -11 38 -7
42 4 4 9 -1 11 -12 1 -10 9 -25 16 -33z m-431 22 c-48 -40 -55 -83 -24 -147
11 -22 19 -48 20 -58 0 -9 5 -26 12 -37 7 -10 10 -21 8 -23 -3 -3 -37 -7 -77
-11 -72 -7 -72 -7 -79 19 -5 19 4 47 35 109 22 45 41 86 41 91 0 13 62 75 74
75 6 -1 2 -9 -10 -18z"/>
<path d="M1972 3150 c0 -14 2 -19 5 -12 2 6 2 18 0 25 -3 6 -5 1 -5 -13z"/>
<path d="M1957 3025 c-5 -33 -11 -79 -14 -102 -2 -23 0 -50 5 -59 9 -17 11
-16 23 8 9 20 9 51 3 120 l-9 93 -8 -60z"/>
<path d="M2168 2123 c7 -3 16 -2 19 1 4 3 -2 6 -13 5 -11 0 -14 -3 -6 -6z"/>
<path d="M2035 2109 c-164 -29 -345 -77 -345 -90 0 -5 37 -46 83 -92 139 -142
287 -227 483 -278 118 -31 347 -34 467 -6 198 47 355 133 495 274 50 51 92 97
92 101 0 11 -122 44 -281 77 -122 24 -201 33 -129 14 178 -47 327 -96 337
-111 8 -14 -110 -123 -190 -175 -166 -109 -308 -153 -509 -160 -207 -8 -368
32 -539 134 -86 51 -246 191 -232 203 14 12 122 49 248 85 116 33 124 42 20
24z"/>
</g>
</svg>
